<?xml version="1.0" encoding="UTF-8"?>
<svg xmlns="http://www.w3.org/2000/svg" version="1.1" viewBox="0 0 384.6476 430.7484">
  <defs>
    <style>
      .cls-1 {
        fill: #f1e967;
      }
    </style>
  </defs>
  <!-- Generator: Adobe Illustrator 28.6.0, SVG Export Plug-In . SVG Version: 1.2.0 Build 709)  -->
  <g>
    <g id="Layer_1">
      <path class="cls-1" d="M228.2804,430.7484h-71.9075v-49.4715C67.4484,364.3943,0,286.0849,0,192.3209,0,86.2737,86.2796,0,192.3267,0v71.9075c-66.4009,0-120.4192,54.0184-120.4192,120.4134,0,53.8779,35.5734,99.6101,84.4655,114.9361l.0585-118.6812c1.9838-61.2103,52.3916-110.395,114.0758-110.395,62.9366,0,114.1402,51.2036,114.1402,114.1402,0,93.7641-67.4425,172.0735-156.3671,188.956v49.4715ZM228.2804,192.3209v114.9361c48.8863-15.326,84.4597-61.0581,84.4597-114.9361,0-23.2845-18.9483-42.2328-42.2328-42.2328s-42.2269,18.9483-42.2269,42.2328Z"/>
    </g>
  </g>
</svg>